<?xml version="1.0" encoding="UTF-8" standalone="no"?>
<svg width="38px" height="38px" viewBox="0 0 38 38" version="1.1" xmlns="http://www.w3.org/2000/svg" xmlns:xlink="http://www.w3.org/1999/xlink" xmlns:sketch="http://www.bohemiancoding.com/sketch/ns">
    <!-- Generator: Sketch 3.4.4 (17249) - http://www.bohemiancoding.com/sketch -->
    <title>github</title>
    <desc>Created with Sketch.</desc>
    <defs></defs>
    <g id="Page-1-Copy" stroke="none" stroke-width="1" fill="none" fill-rule="evenodd" sketch:type="MSPage">
        <g id="Tools" sketch:type="MSArtboardGroup" transform="translate(-773.000000, -1464.000000)" fill="#FFFFFF">
            <g id="Help" sketch:type="MSLayerGroup" transform="translate(445.000000, 1397.000000)">
                <path d="M328,86 C328,94.3944029 333.444053,101.517835 340.994432,104.028971 C341.943786,104.205228 342.25,103.617704 342.25,103.115126 L342.25,99.5774369 C336.964956,100.727859 335.863971,97.3370049 335.863971,97.3370049 C335.001223,95.1398301 333.755063,94.5553495 333.755063,94.5553495 C332.030951,93.377165 333.884927,93.4003155 333.884927,93.4003155 C335.793044,93.5348835 336.798015,95.3593447 336.798015,95.3593447 C338.492612,98.2631165 341.241801,97.4236117 342.327291,96.9380971 C342.497369,95.7102913 342.988971,94.8723544 343.53333,94.3976311 C339.31201,93.9182961 334.877447,92.2885388 334.877447,85.0073883 C334.877447,82.9323301 335.619646,81.2376408 336.835092,79.9079175 C336.63716,79.4285825 335.987655,77.4958398 337.017621,74.8795583 C337.017621,74.8795583 338.613345,74.3693252 342.243728,76.8277961 C343.7605,76.4072136 345.385738,76.1954466 347,76.187699 C348.614262,76.1954466 350.242359,76.4073058 351.759223,76.8277961 C355.386748,74.3693252 356.979243,74.8795583 356.979243,74.8795583 C358.01382,77.4957476 357.362748,79.4284903 357.166383,79.9079175 C358.384874,81.2376408 359.122369,82.9323301 359.122369,85.0073883 C359.122369,92.3055097 354.677015,93.9120243 350.446563,94.3821359 C351.126782,94.9713204 351.750092,96.1293058 351.750092,97.9012864 L351.750092,103.115126 C351.750092,103.620748 352.054553,104.212976 353.017927,104.027495 C360.56351,101.51184 366,94.3929272 366,86.0000922 C366,75.5073883 357.492612,67 347,67 C336.507204,67 328,75.5072961 328,86 Z" id="github" sketch:type="MSShapeGroup"></path>
            </g>
        </g>
    </g>
</svg>