<?xml version="1.0" encoding="UTF-8" standalone="no"?>
<svg width="46px" height="38px" viewBox="0 0 46 38" version="1.1" xmlns="http://www.w3.org/2000/svg" xmlns:xlink="http://www.w3.org/1999/xlink" xmlns:sketch="http://www.bohemiancoding.com/sketch/ns">
    <!-- Generator: Sketch 3.4.4 (17249) - http://www.bohemiancoding.com/sketch -->
    <title>twitter</title>
    <desc>Created with Sketch.</desc>
    <defs></defs>
    <g id="Page-1-Copy" stroke="none" stroke-width="1" fill="none" fill-rule="evenodd" sketch:type="MSPage">
        <g id="Tools" sketch:type="MSArtboardGroup" transform="translate(-1155.000000, -1463.000000)" fill="#FFFFFF">
            <g id="Help" sketch:type="MSLayerGroup" transform="translate(445.000000, 1397.000000)">
                <path d="M756,71.0418932 C754.307602,71.7926311 752.488704,72.3000825 750.579704,72.5279612 C752.527893,71.3599854 754.024568,69.5106068 754.729083,67.3067379 C752.905495,68.3882961 750.88585,69.1736456 748.736131,69.596801 C747.014704,67.7626068 744.561966,66.6167379 741.847519,66.6167379 C735.755869,66.6167379 731.277791,72.301534 732.654553,78.2046068 C724.811107,77.8111505 717.857068,74.0537767 713.202471,68.3443058 C710.730306,72.5851262 711.920165,78.1350485 716.123024,80.9440631 C714.576218,80.8951602 713.120631,80.4705534 711.848485,79.7634709 C711.746102,84.1359272 714.87935,88.2244563 719.41783,89.1364175 C718.089636,89.4978301 716.63483,89.5805631 715.156131,89.2979757 C716.35682,93.047199 719.842325,95.7757136 723.972053,95.8517476 C720.00433,98.9611019 715.007078,100.349922 710,99.7598495 C714.176398,102.437451 719.137141,104 724.466665,104 C741.988199,104 751.887466,89.2006165 751.290806,75.9271602 C753.134937,74.5966214 754.734777,72.9344806 756,71.0418932 L756,71.0418932 Z" id="twitter" sketch:type="MSShapeGroup"></path>
            </g>
        </g>
    </g>
</svg>