<?xml version="1.0" encoding="UTF-8" standalone="no"?>
<svg width="51px" height="47px" viewBox="0 0 51 47" version="1.1" xmlns="http://www.w3.org/2000/svg" xmlns:xlink="http://www.w3.org/1999/xlink" xmlns:sketch="http://www.bohemiancoding.com/sketch/ns">
    <!-- Generator: Sketch 3.4.4 (17249) - http://www.bohemiancoding.com/sketch -->
    <title>api-blueprint</title>
    <desc>Created with Sketch.</desc>
    <defs></defs>
    <g id="Page-1" stroke="none" stroke-width="1" fill="none" fill-rule="evenodd" sketch:type="MSPage">
        <g id="Desktop-HD" sketch:type="MSArtboardGroup" transform="translate(-445.000000, -137.000000)">
            <g id="Group" sketch:type="MSLayerGroup" transform="translate(445.000000, 136.000000)">
                <g id="api-blueprint" transform="translate(0.000000, 1.000000)" sketch:type="MSShapeGroup">
                    <path d="M29.2153603,16.6328647 L37.8461295,30.2589151 L38.4789209,31.257951 L40.463585,29.9838183 L39.8307936,28.9847824 L31.2000244,15.358732 L30.5672329,14.3596961 L28.5825688,15.6338288 L29.2153603,16.6328647 L29.2153603,16.6328647 L29.2153603,16.6328647 Z M19.7999756,15.358732 L11.1692064,28.9847824 L10.536415,29.9838183 L12.5210791,31.257951 L13.1538705,30.2589151 L21.7846397,16.6328647 L22.4174312,15.6338288 L20.4327671,14.3596961 L19.7999756,15.358732 L19.7999756,15.358732 L19.7999756,15.358732 Z" id="Shape-Copy" fill="#5E9CFF"></path>
                    <path d="M25.5,18.1680672 C30.4833078,18.1680672 34.5230769,14.1010068 34.5230769,9.08403361 C34.5230769,4.06706038 30.4833078,0 25.5,0 C20.5166922,0 16.4769231,4.06706038 16.4769231,9.08403361 C16.4769231,14.1010068 20.5166922,18.1680672 25.5,18.1680672 Z M25.5,15.7983193 C21.8166856,15.7983193 18.8307692,12.7922312 18.8307692,9.08403361 C18.8307692,5.37583601 21.8166856,2.3697479 25.5,2.3697479 C29.1833144,2.3697479 32.1692308,5.37583601 32.1692308,9.08403361 C32.1692308,12.7922312 29.1833144,15.7983193 25.5,15.7983193 Z" id="Path" fill="#5E9CFF"></path>
                    <ellipse id="Oval-4-Copy-2" fill="#FFFFFF" cx="9" cy="38" rx="3" ry="3"></ellipse>
                    <path d="M41.9769231,47 C46.9602309,47 51,42.9329396 51,37.9159664 C51,32.8989932 46.9602309,28.8319328 41.9769231,28.8319328 C36.9936153,28.8319328 32.9538462,32.8989932 32.9538462,37.9159664 C32.9538462,42.9329396 36.9936153,47 41.9769231,47 Z M41.9769231,44.6302521 C38.2936086,44.6302521 35.3076923,41.624164 35.3076923,37.9159664 C35.3076923,34.2077688 38.2936086,31.2016807 41.9769231,31.2016807 C45.6602375,31.2016807 48.6461538,34.2077688 48.6461538,37.9159664 C48.6461538,41.624164 45.6602375,44.6302521 41.9769231,44.6302521 Z" id="Path" fill="#5E9CFF"></path>
                    <path d="M9.02307692,47 C14.0063847,47 18.0461538,42.9329396 18.0461538,37.9159664 C18.0461538,32.8989932 14.0063847,28.8319328 9.02307692,28.8319328 C4.03976914,28.8319328 0,32.8989932 0,37.9159664 C0,42.9329396 4.03976914,47 9.02307692,47 Z M9.02307692,44.6302521 C5.33976248,44.6302521 2.35384615,41.624164 2.35384615,37.9159664 C2.35384615,34.2077688 5.33976248,31.2016807 9.02307692,31.2016807 C12.7063914,31.2016807 15.6923077,34.2077688 15.6923077,37.9159664 C15.6923077,41.624164 12.7063914,44.6302521 9.02307692,44.6302521 Z" id="Path" fill="#5E9CFF"></path>
                </g>
            </g>
        </g>
    </g>
</svg>