<?xml version="1.0" encoding="UTF-8" standalone="no"?>
<svg width="38px" height="36px" viewBox="0 0 38 36" version="1.1" xmlns="http://www.w3.org/2000/svg" xmlns:xlink="http://www.w3.org/1999/xlink" xmlns:sketch="http://www.bohemiancoding.com/sketch/ns">
    <!-- Generator: Sketch 3.4.4 (17249) - http://www.bohemiancoding.com/sketch -->
    <title>apiblueprint-footer.svg</title>
    <desc>Created with Sketch.</desc>
    <defs></defs>
    <g id="Page-1-Copy" stroke="none" stroke-width="1" fill="none" fill-rule="evenodd" sketch:type="MSPage">
        <g id="Desktop-HD" sketch:type="MSArtboardGroup" transform="translate(-445.000000, -2716.000000)" fill="#6E5AA1">
            <g id="Group" sketch:type="MSLayerGroup" transform="translate(445.000000, 2705.000000)">
                <g id="apiblueprint-footer.svg" transform="translate(0.000000, 11.000000)" sketch:type="MSShapeGroup">
                    <path d="M21.7683076,12.4746485 L28.1990769,22.6941863 L28.6705685,23.4434633 L30.1493379,22.4878637 L29.6778462,21.7385868 L23.247077,11.519049 L22.7755853,10.769772 L21.296816,11.7253716 L21.7683076,12.4746485 Z M14.752923,11.519049 L8.32215379,21.7385868 L7.85066212,22.4878637 L9.32943146,23.4434633 L9.80092313,22.6941863 L16.2316924,12.4746485 L16.703184,11.7253716 L15.2244147,10.769772 L14.752923,11.519049 Z" id="Shape-Copy"></path>
                    <path d="M19,13.6260504 C22.7130529,13.6260504 25.7230769,10.5757551 25.7230769,6.81302521 C25.7230769,3.05029529 22.7130529,0 19,0 C15.2869471,0 12.2769231,3.05029529 12.2769231,6.81302521 C12.2769231,10.5757551 15.2869471,13.6260504 19,13.6260504 Z M19,11.8487395 C16.2555696,11.8487395 14.0307692,9.59417341 14.0307692,6.81302521 C14.0307692,4.03187701 16.2555696,1.77731092 19,1.77731092 C21.7444304,1.77731092 23.9692308,4.03187701 23.9692308,6.81302521 C23.9692308,9.59417341 21.7444304,11.8487395 19,11.8487395 Z" id="Oval-4-Copy-2"></path>
                    <ellipse id="Oval-4-Copy-2" cx="6.70588235" cy="28.5" rx="2.23529412" ry="2.25"></ellipse>
                    <path d="M31.2769231,35.25 C34.9899759,35.25 38,32.1997047 38,28.4369748 C38,24.6742449 34.9899759,21.6239496 31.2769231,21.6239496 C27.5638702,21.6239496 24.5538462,24.6742449 24.5538462,28.4369748 C24.5538462,32.1997047 27.5638702,35.25 31.2769231,35.25 Z M31.2769231,33.4726891 C28.5324927,33.4726891 26.3076923,31.218123 26.3076923,28.4369748 C26.3076923,25.6558266 28.5324927,23.4012605 31.2769231,23.4012605 C34.0213534,23.4012605 36.2461538,25.6558266 36.2461538,28.4369748 C36.2461538,31.218123 34.0213534,33.4726891 31.2769231,33.4726891 Z" id="Path"></path>
                    <path d="M6.72307692,35.25 C10.4361298,35.25 13.4461538,32.1997047 13.4461538,28.4369748 C13.4461538,24.6742449 10.4361298,21.6239496 6.72307692,21.6239496 C3.01002407,21.6239496 0,24.6742449 0,28.4369748 C0,32.1997047 3.01002407,35.25 6.72307692,35.25 Z M6.72307692,33.4726891 C3.97864655,33.4726891 1.75384615,31.218123 1.75384615,28.4369748 C1.75384615,25.6558266 3.97864655,23.4012605 6.72307692,23.4012605 C9.4675073,23.4012605 11.6923077,25.6558266 11.6923077,28.4369748 C11.6923077,31.218123 9.4675073,33.4726891 6.72307692,33.4726891 Z" id="Path"></path>
                </g>
            </g>
        </g>
    </g>
</svg>