<?xml version="1.0" encoding="UTF-8" standalone="no"?>
<svg width="38px" height="38px" viewBox="0 0 38 38" version="1.1" xmlns="http://www.w3.org/2000/svg" xmlns:xlink="http://www.w3.org/1999/xlink" xmlns:sketch="http://www.bohemiancoding.com/sketch/ns">
    <!-- Generator: Sketch 3.4.4 (17249) - http://www.bohemiancoding.com/sketch -->
    <title>github-icon</title>
    <desc>Created with Sketch.</desc>
    <defs></defs>
    <g id="Page-1" stroke="none" stroke-width="1" fill="none" fill-rule="evenodd" sketch:type="MSPage">
        <path d="M19,-3.55271368e-15 C8.50720388,-3.55271368e-15 0,8.50729612 0,19 C0,27.3944029 5.4440534,34.517835 12.994432,37.0289709 C13.9437864,37.2052282 14.25,36.6177039 14.25,36.1151262 L14.25,32.5774369 C8.96495631,33.7278592 7.86397087,30.3370049 7.86397087,30.3370049 C7.0012233,28.1398301 5.75506311,27.5553495 5.75506311,27.5553495 C4.03095146,26.377165 5.88492718,26.4003155 5.88492718,26.4003155 C7.79304369,26.5348835 8.79801456,28.3593447 8.79801456,28.3593447 C10.4926117,31.2631165 13.241801,30.4236117 14.3272913,29.9380971 C14.4973689,28.7102913 14.9889709,27.8723544 15.5333301,27.3976311 C11.3120097,26.9182961 6.8774466,25.2885388 6.8774466,18.0073883 C6.8774466,15.9323301 7.61964563,14.2376408 8.83509223,12.9079175 C8.63716019,12.4285825 7.98765534,10.4958398 9.01762136,7.87955825 C9.01762136,7.87955825 10.6133447,7.36932524 14.2437282,9.82779612 C15.7605,9.40721359 17.3857379,9.1954466 19,9.18769903 C20.6142621,9.1954466 22.2423592,9.40730583 23.7592233,9.82779612 C27.3867476,7.36932524 28.9792427,7.87955825 28.9792427,7.87955825 C30.0138204,10.4957476 29.3627476,12.4284903 29.1663835,12.9079175 C30.3848738,14.2376408 31.1223689,15.9323301 31.1223689,18.0073883 C31.1223689,25.3055097 26.6770146,26.9120243 22.4465631,27.3821359 C23.1267816,27.9713204 23.7500922,29.1293058 23.7500922,30.9012864 L23.7500922,36.1151262 C23.7500922,36.6207476 24.0545534,37.2129757 25.0179272,37.0274951 C32.5635097,34.5118398 38,27.3929272 38,19.0000922 C38,8.50738835 29.4926117,-3.55271368e-15 19,-3.55271368e-15 L19,-3.55271368e-15 Z" id="github-icon" fill="#5E9CFC" sketch:type="MSShapeGroup"></path>
    </g>
</svg>