<?xml version="1.0" encoding="UTF-8" standalone="no"?>
<svg width="39px" height="39px" viewBox="0 0 39 39" version="1.1" xmlns="http://www.w3.org/2000/svg" xmlns:xlink="http://www.w3.org/1999/xlink" xmlns:sketch="http://www.bohemiancoding.com/sketch/ns">
    <!-- Generator: Sketch 3.4.4 (17249) - http://www.bohemiancoding.com/sketch -->
    <title>Shape</title>
    <desc>Created with Sketch.</desc>
    <defs></defs>
    <g id="Page-1" stroke="none" stroke-width="1" fill="none" fill-rule="evenodd" sketch:type="MSPage">
        <path d="M12.2871511,10.5157552 L19.4659413,8.11068143 L18.2254484,4.42592897 L18.1799102,4.27413522 C17.6865806,2.5494442 18.6352915,0.75042658 20.3356432,0.177274328 C20.6758705,0.0629055907 21.0276133,0.00323494532 21.3817115,9.43850383e-05 C21.9077553,-0.00383131532 22.4167878,0.114724835 22.8962467,0.351575423 C23.6978747,0.750688293 24.29746,1.43768586 24.5840361,2.28616056 L25.8273989,5.97943447 L29.5699373,4.72559076 C29.9015281,4.63058881 30.2354743,4.58217184 30.56628,4.58007813 C32.0423433,4.56856274 33.2938566,5.44425564 33.7539487,6.80987593 L33.794776,6.94177947 C34.305117,8.72561771 33.0371158,10.3178818 31.5178698,10.8282228 C31.5173391,10.8286208 31.4460601,10.8528258 27.8781057,12.070836 L30.3217441,19.3293982 L34.1054297,18.0502029 C34.4579576,17.9324319 34.8220009,17.8722378 35.1881379,17.8688355 C36.6411705,17.8578436 37.9178082,18.7455753 38.3682169,20.0787431 L38.410091,20.2174512 C38.6736364,21.1389439 38.5179169,22.1745437 37.9939668,22.9918745 C37.6034905,23.5995729 36.3718674,24.134515 36.3718674,24.134515 L32.3969699,25.4936306 L33.6882586,29.3292635 L33.7146917,29.4161523 C34.2260796,31.2067951 33.2794624,33.0068595 31.5791107,33.5800118 C31.2422856,33.6922868 30.8915897,33.7511723 30.5377533,33.7543129 C29.082627,33.7655666 27.7942121,32.8474761 27.3304561,31.4713873 L26.0487585,27.6642409 L18.8835616,30.1141986 L20.153229,33.8864781 C20.1702403,33.9335865 20.1856814,33.9856675 20.1995522,34.035393 C20.6926202,35.7608692 19.7462647,37.5611954 18.0438193,38.1348711 C17.7056856,38.2476695 17.3557749,38.306555 17.0027236,38.3094339 L17.0037704,38.3094339 L17.0037704,38.3096956 C15.5486442,38.3209493 14.2591824,37.4028588 13.7951647,36.024938 L12.5362073,32.2845158 L8.98618173,33.4983572 C8.60460366,33.6258116 8.2154359,33.693072 7.82731499,33.6964742 L7.82731499,33.6959508 C6.37820813,33.7064193 5.15600675,32.8616086 4.7121409,31.5433585 C4.69539124,31.4931095 4.67942673,31.4425988 4.66503249,31.3918264 C4.16882397,29.6587606 5.11674975,27.8482276 6.82338255,27.2737667 L10.4383287,26.0516192 L8.01512884,18.8521775 C6.8634812,19.2453761 5.65540636,19.6578424 4.38813976,20.0905202 C4.02514334,20.2137872 3.65272523,20.276075 3.28004541,20.2792156 C1.84219223,20.2902075 0.624178262,19.433358 0.175078142,18.0960027 C0.15780506,18.0441835 0.142887399,17.9939345 0.128493164,17.9434239 C-0.360910814,16.2307716 0.588061819,14.439082 2.28893693,13.8654063 L5.92649086,12.646735 L4.6925124,8.98052652 C4.6768096,8.93080098 4.66110679,8.88107544 4.64592742,8.83004134 C4.15390631,7.10587374 5.09973838,5.30659441 6.79956663,4.73291873 C7.13848543,4.62038199 7.48891962,4.56097306 7.84249436,4.55809421 C9.29788234,4.54657882 10.5865589,5.46440757 11.050315,6.84101982 L12.2871511,10.5157552 Z M14.3634924,16.6847249 C17.1929519,15.7187049 19.5557602,14.9120241 21.5288731,14.2384011 L23.9661607,21.4781053 L16.7930729,23.9031958 L14.3634924,16.6847249 Z" id="Shape" fill="#5E9CFC" sketch:type="MSShapeGroup"></path>
    </g>
</svg>