<?xml version="1.0" encoding="UTF-8" standalone="no"?>
<svg width="39px" height="39px" viewBox="0 0 39 39" version="1.1" xmlns="http://www.w3.org/2000/svg" xmlns:xlink="http://www.w3.org/1999/xlink" xmlns:sketch="http://www.bohemiancoding.com/sketch/ns">
    <!-- Generator: Sketch 3.4.4 (17249) - http://www.bohemiancoding.com/sketch -->
    <title>slack</title>
    <desc>Created with Sketch.</desc>
    <defs></defs>
    <g id="Page-1-Copy" stroke="none" stroke-width="1" fill="none" fill-rule="evenodd" sketch:type="MSPage">
        <g id="Tools" sketch:type="MSArtboardGroup" transform="translate(-970.000000, -1463.000000)" fill="#FFFFFF">
            <g id="Help" sketch:type="MSLayerGroup" transform="translate(445.000000, 1397.000000)">
                <path d="M537.751182,76.8093946 L544.929972,74.4043208 L543.689479,70.7195683 L543.643941,70.5677746 C543.150611,68.8430836 544.099322,67.0440659 545.799674,66.4709137 C546.139901,66.3565449 546.491644,66.2968743 546.845742,66.2937337 C547.371786,66.289808 547.880819,66.4083642 548.360278,66.6452148 C549.161906,67.0443277 549.761491,67.7313252 550.048067,68.5797999 L551.29143,72.2730738 L555.033968,71.0192301 C555.365559,70.9242282 555.699505,70.8758112 556.030311,70.8737175 C557.506374,70.8622021 558.757888,71.737895 559.21798,73.1035153 L559.258807,73.2354188 C559.769148,75.0192571 558.501147,76.6115211 556.981901,77.1218622 C556.98137,77.1222602 556.910091,77.1464651 553.342137,78.3644754 L555.785775,85.6230375 L559.569461,84.3438423 C559.921989,84.2260713 560.286032,84.1658772 560.652169,84.1624749 C562.105201,84.1514829 563.381839,85.0392147 563.832248,86.3723825 L563.874122,86.5110906 C564.137667,87.4325833 563.981948,88.4681831 563.457998,89.2855139 C563.067521,89.8932123 561.835898,90.4281544 561.835898,90.4281544 L557.861001,91.78727 L559.15229,95.6229028 L559.178723,95.7097916 C559.690111,97.5004344 558.743493,99.3004989 557.043142,99.8736512 C556.706317,99.9859262 556.355621,100.044812 556.001784,100.047952 C554.546658,100.059206 553.258243,99.1411155 552.794487,97.7650266 L551.512789,93.9578802 L544.347593,96.407838 L545.61726,100.180117 C545.634271,100.227226 545.649712,100.279307 545.663583,100.329032 C546.156651,102.054509 545.210296,103.854835 543.50785,104.42851 C543.169717,104.541309 542.819806,104.600194 542.466754,104.603073 L542.467801,104.603073 L542.467801,104.603335 C541.012675,104.614589 539.723213,103.696498 539.259196,102.318577 L538.000238,98.5781552 L534.450213,99.7919966 C534.068635,99.919451 533.679467,99.9867113 533.291346,99.9901136 L533.291346,99.9895902 C531.842239,100.000059 530.620038,99.155248 530.176172,97.8369978 C530.159422,97.7867488 530.143458,97.7362382 530.129063,97.6854658 C529.632855,95.9523999 530.580781,94.1418669 532.287413,93.5674061 L535.90236,92.3452586 L533.47916,85.1458168 C532.327512,85.5390155 531.119437,85.9514817 529.852171,86.3841596 C529.489174,86.5074266 529.116756,86.5697144 528.744076,86.5728549 C527.306223,86.5838469 526.088209,85.7269974 525.639109,84.3896421 C525.621836,84.3378229 525.606918,84.2875739 525.592524,84.2370632 C525.10312,82.524411 526.052093,80.7327214 527.752968,80.1590457 L531.390522,78.9403744 L530.156543,75.2741659 C530.140841,75.2244403 530.125138,75.1747148 530.109958,75.1236807 C529.617937,73.3995131 530.563769,71.6002338 532.263598,71.0265581 C532.602516,70.9140213 532.952951,70.8546124 533.306525,70.8517336 C534.761913,70.8402182 536.05059,71.7580469 536.514346,73.1346592 L537.751182,76.8093946 Z M539.827523,82.9783643 C542.656983,82.0123443 545.019791,81.2056635 546.992904,80.5320405 L549.430192,87.7717447 L542.257104,90.1968352 L539.827523,82.9783643 Z" id="slack" sketch:type="MSShapeGroup"></path>
            </g>
        </g>
    </g>
</svg>