<?xml version="1.0" encoding="UTF-8" standalone="no"?>
<svg width="35px" height="44px" viewBox="0 0 35 44" version="1.1" xmlns="http://www.w3.org/2000/svg" xmlns:xlink="http://www.w3.org/1999/xlink" xmlns:sketch="http://www.bohemiancoding.com/sketch/ns">
    <!-- Generator: Sketch 3.4.4 (17249) - http://www.bohemiancoding.com/sketch -->
    <title>stackoverflow-icon</title>
    <desc>Created with Sketch.</desc>
    <defs></defs>
    <g id="Page-1" stroke="none" stroke-width="1" fill="none" fill-rule="evenodd" sketch:type="MSPage">
        <path d="M22.8023473,38.1262683 L5.43070734,38.1343874 L5.42921172,34.4243922 L22.8001039,34.4154185 L22.8023473,38.1262683 L22.8023473,38.1262683 Z M34.5407302,17.1149273 L31.5690377,0 L27.9132054,0.634357041 L30.8844705,17.7492844 L34.5407302,17.1149273 L34.5407302,17.1149273 Z M23.220053,29.6584885 L5.92255304,28.0646905 L5.58197874,31.7598363 L22.8797992,33.3521387 L23.220053,29.6584885 L23.220053,29.6584885 Z M24.3612119,24.8170559 L7.58621795,20.307758 L6.62239693,23.8903049 L23.398566,28.4001369 L24.3612119,24.8170559 L24.3612119,24.8170559 Z M26.5512287,20.5733376 L11.5888207,11.7484249 L9.70305607,14.9430717 L24.6662118,23.7685186 L26.5512287,20.5733376 L26.5512287,20.5733376 Z M30.2200943,17.9748027 L20.4328561,3.6223945 L17.36726,5.7125251 L27.1549255,20.0642923 L30.2200943,17.9748027 L30.2200943,17.9748027 Z M25.7524601,25.9218926 L25.7524601,41.088987 L2.96763291,41.088987 L2.96763291,25.9218926 L-3.55271368e-15,25.9218926 L-3.55271368e-15,44 L28.7051368,44 L28.7051368,25.9218926 L25.7524601,25.9218926 L25.7524601,25.9218926 Z" id="stackoverflow-icon" fill="#5E9CFC" sketch:type="MSShapeGroup"></path>
    </g>
</svg>