<?xml version="1.0" encoding="UTF-8" standalone="no"?>
<svg width="46px" height="38px" viewBox="0 0 46 38" version="1.1" xmlns="http://www.w3.org/2000/svg" xmlns:xlink="http://www.w3.org/1999/xlink" xmlns:sketch="http://www.bohemiancoding.com/sketch/ns">
    <!-- Generator: Sketch 3.4.4 (17249) - http://www.bohemiancoding.com/sketch -->
    <title>twitter-icon</title>
    <desc>Created with Sketch.</desc>
    <defs></defs>
    <g id="Page-1" stroke="none" stroke-width="1" fill="none" fill-rule="evenodd" sketch:type="MSPage">
        <path d="M46,4.42515534 C44.3076019,5.1758932 42.4887039,5.68334466 40.5797039,5.9112233 C42.5278932,4.74324757 44.024568,2.89386893 44.7290825,0.69 C42.9054951,1.77155825 40.8858495,2.55690777 38.7361311,2.98006311 C37.0147039,1.14586893 34.561966,-7.10542736e-15 31.8475194,-7.10542736e-15 C25.7558689,-7.10542736e-15 21.2777913,5.68479612 22.6545534,11.5878689 C14.8111068,11.1944126 7.85706796,7.43703883 3.20247087,1.72756796 C0.730305825,5.96838835 1.92016505,11.5183107 6.12302427,14.3273252 C4.57621845,14.2784223 3.12063107,13.8538155 1.84848544,13.146733 C1.74610194,17.5191893 4.87934951,21.6077184 9.4178301,22.5196796 C8.08963592,22.8810922 6.6348301,22.9638252 5.15613107,22.6812379 C6.35682039,26.4304612 9.84232524,29.1589757 13.9720534,29.2350097 C10.0043301,32.3443641 5.00707767,33.7331845 0,33.1431117 C4.17639806,35.8207136 9.13714078,37.3832621 14.466665,37.3832621 C31.988199,37.3832621 41.887466,22.5838786 41.2908058,9.31042233 C43.1349369,7.9798835 44.7347767,6.31774272 46,4.42515534 L46,4.42515534 Z" id="twitter-icon" fill="#5E9CFC" sketch:type="MSShapeGroup"></path>
    </g>
</svg>